<svg width="75" height="79" viewBox="0 0 75 79" fill="none" xmlns="http://www.w3.org/2000/svg">
<path d="M46.875 49.375H51.5625V74.0625H46.875V49.375ZM9.375 56.7812H14.0625V74.0625H9.375V56.7812Z" fill="black"/>
<path d="M37.5 74.0625H32.8125V64.1875C32.8119 63.533 32.5648 62.9054 32.1253 62.4426C31.6859 61.9797 31.0902 61.7194 30.4688 61.7188H25.7812V74.0625H21.0938V56.7813H30.4688C32.333 56.7832 34.1203 57.5641 35.4385 58.9527C36.7568 60.3412 37.4981 62.2238 37.5 64.1875V74.0625ZM17.5781 54.3125C15.4033 54.3099 13.3182 53.3987 11.7804 51.7788C10.2425 50.159 9.37748 47.9627 9.375 45.6719V41.9688H4.6875V37.0313H14.0625V45.6719C14.0625 46.654 14.4329 47.5959 15.0922 48.2904C15.7515 48.9849 16.6457 49.375 17.5781 49.375C18.5105 49.375 19.4047 48.9849 20.064 48.2904C20.7234 47.5959 21.0938 46.654 21.0938 45.6719V37.0313H30.4688V41.9688H25.7812V45.6719C25.7788 47.9627 24.9137 50.159 23.3759 51.7788C21.838 53.3987 19.753 54.3099 17.5781 54.3125ZM63.2812 24.6875H50.0484C48.6419 24.6825 47.2666 25.1241 46.1018 25.9547C44.937 26.7852 44.0369 27.9662 43.5188 29.3436L40.1391 38.2434L31.6852 49.3775L35.3461 52.4634L44.018 41.043L47.8734 31.1778C48.0458 30.7188 48.3456 30.3251 48.7336 30.0481C49.1215 29.7711 49.5797 29.6236 50.0484 29.625H63.2812C63.9029 29.625 64.499 29.8851 64.9385 30.3481C65.3781 30.8111 65.625 31.439 65.625 32.0938V49.375H58.5938V74.0625H63.2812V54.3125H65.625C66.8678 54.3112 68.0594 53.7906 68.9382 52.8649C69.817 51.9392 70.3113 50.6841 70.3125 49.375V32.0938C70.3106 30.1301 69.5693 28.2474 68.251 26.8589C66.9328 25.4704 65.1455 24.6895 63.2812 24.6875ZM56.25 22.2188C54.3958 22.2188 52.5832 21.6396 51.0415 20.5545C49.4998 19.4694 48.2982 17.9272 47.5886 16.1228C46.8791 14.3183 46.6934 12.3328 47.0551 10.4172C47.4169 8.50168 48.3098 6.74212 49.6209 5.36108C50.932 3.98003 52.6025 3.03953 54.421 2.6585C56.2396 2.27747 58.1246 2.47303 59.8377 3.22044C61.5507 3.96786 63.0149 5.23356 64.045 6.8575C65.0752 8.48143 65.625 10.3907 65.625 12.3438C65.6219 14.9618 64.6332 17.4716 62.8757 19.3228C61.1182 21.174 58.7355 22.2155 56.25 22.2188ZM56.25 7.40625C55.3229 7.40625 54.4166 7.69583 53.6458 8.23837C52.8749 8.78091 52.2741 9.55204 51.9193 10.4543C51.5645 11.3565 51.4717 12.3492 51.6526 13.307C51.8334 14.2648 52.2799 15.1446 52.9354 15.8351C53.591 16.5256 54.4262 16.9959 55.3355 17.1864C56.2448 17.3769 57.1873 17.2791 58.0438 16.9054C58.9004 16.5317 59.6324 15.8988 60.1475 15.0869C60.6626 14.2749 60.9375 13.3203 60.9375 12.3438C60.9363 11.0346 60.442 9.77954 59.5632 8.85386C58.6844 7.92818 57.4928 7.40756 56.25 7.40625Z" fill="black"/>
</svg>
