<svg width="70" height="74" viewBox="0 0 70 74" fill="none" xmlns="http://www.w3.org/2000/svg">
<path d="M68.5484 36.4059L38.714 3.02935L36.7142 0.790989C36.2586 0.284347 35.6424 0 35.0001 0C34.3579 0 33.7417 0.284347 33.2861 0.790989L1.45189 36.4059C0.985002 36.9265 0.616014 37.5465 0.366703 38.2293C0.117393 38.9121 -0.00718549 39.6438 0.000320038 40.3814C0.0312045 43.4235 2.29349 45.852 5.01132 45.852H8.2928V74H61.7075V45.852H65.0584C66.3788 45.852 67.6219 45.273 68.5561 44.2272C69.0161 43.714 69.3806 43.1037 69.6285 42.4317C69.8763 41.7597 70.0026 41.0393 70 40.3123C70 38.8431 69.4826 37.4517 68.5484 36.4059ZM39.324 67.7775H30.6763V50.1472H39.324V67.7775ZM56.1483 39.6295V67.7775H44.2655V48.0731C44.2655 46.1631 42.8834 44.6161 41.177 44.6161H28.8232C27.1169 44.6161 25.7348 46.1631 25.7348 48.0731V67.7775H13.852V39.6295H6.43973L35.0079 7.67891L36.7914 9.67528L63.5683 39.6295H56.1483Z" fill="black"/>
</svg>
