<svg width="70" height="74" viewBox="0 0 70 74" fill="none" xmlns="http://www.w3.org/2000/svg">
<g clip-path="url(#clip0_38_506)">
<path d="M40.8333 24.6667H13.6111C13.0954 24.6667 12.6008 24.4501 12.2362 24.0646C11.8715 23.6791 11.6667 23.1563 11.6667 22.6111V14.3889C11.6667 13.8437 11.8715 13.3209 12.2362 12.9354C12.6008 12.5499 13.0954 12.3333 13.6111 12.3333H40.8333C41.349 12.3333 41.8436 12.5499 42.2083 12.9354C42.5729 13.3209 42.7778 13.8437 42.7778 14.3889V22.6111C42.7778 23.1563 42.5729 23.6791 42.2083 24.0646C41.8436 24.4501 41.349 24.6667 40.8333 24.6667ZM15.5556 20.5556H38.8889V16.3211H15.5556V20.5556Z" fill="black"/>
<path d="M40.8333 28.9422H13.6111C13.0954 28.9422 12.6008 29.1588 12.2362 29.5443C11.8715 29.9298 11.6667 30.4526 11.6667 30.9978V39.0555C11.6667 39.6007 11.8715 40.1236 12.2362 40.509C12.6008 40.8945 13.0954 41.1111 13.6111 41.1111H35.7L42.7778 33.5055V30.9978C42.7778 30.4526 42.5729 29.9298 42.2083 29.5443C41.8436 29.1588 41.349 28.9422 40.8333 28.9422ZM38.8889 37H15.5556V32.8889H38.8889V37Z" fill="black"/>
<path d="M21.5056 64.7706V64.6472L22.1278 61.79H7.77778V8.22223H46.6667V29.2917L50.5556 25.4067V6.16667C50.5556 5.6215 50.3507 5.09866 49.986 4.71317C49.6214 4.32768 49.1268 4.11111 48.6111 4.11111H5.83333C5.31764 4.11111 4.82306 4.32768 4.4584 4.71317C4.09375 5.09866 3.88889 5.6215 3.88889 6.16667V63.7222C3.88889 64.2674 4.09375 64.7902 4.4584 65.1757C4.82306 65.5612 5.31764 65.7778 5.83333 65.7778H21.3889C21.4049 65.4395 21.4439 65.1029 21.5056 64.7706Z" fill="black"/>
<path d="M42.7778 39.405L41.2611 41.0289C41.6374 40.9469 41.9823 40.7489 42.2522 40.4599C42.5221 40.1709 42.705 39.8038 42.7778 39.405Z" fill="black"/>
<path d="M11.6667 55.3767C11.6667 55.9218 11.8715 56.4447 12.2362 56.8302C12.6008 57.2157 13.0954 57.4322 13.6111 57.4322H23.0222L23.6056 54.76L23.8583 53.6295V53.5267H15.5556V49.3333H27.8833L31.7722 45.2222H13.6111C13.0954 45.2222 12.6008 45.4388 12.2362 45.8243C11.8715 46.2098 11.6667 46.7326 11.6667 47.2778V55.3767Z" fill="black"/>
<path d="M65.1194 34.2661L58.5667 27.3389C58.2759 27.0306 57.9304 26.786 57.55 26.6191C57.1696 26.4523 56.7618 26.3664 56.35 26.3664C55.9382 26.3664 55.5304 26.4523 55.15 26.6191C54.7696 26.786 54.4241 27.0306 54.1333 27.3389L27.475 55.685L25.2778 65.5722C25.1955 65.9988 25.1937 66.4383 25.2723 66.8656C25.351 67.2929 25.5086 67.6996 25.7362 68.0624C25.9638 68.4252 26.2569 68.7369 26.5986 68.9798C26.9404 69.2227 27.3241 69.3919 27.7278 69.4778C27.9282 69.4991 28.1301 69.4991 28.3306 69.4778C28.5688 69.5188 28.8118 69.5188 29.05 69.4778L38.4806 67.2783L65.1194 39.0556C65.4105 38.7499 65.6414 38.3864 65.799 37.986C65.9566 37.5856 66.0377 37.1562 66.0377 36.7225C66.0377 36.2888 65.9566 35.8594 65.799 35.459C65.6414 35.0586 65.4105 34.6951 65.1194 34.3894V34.2661ZM36.4972 63.5372L29.3806 65.2022L31.1111 57.7406L51.1 36.3833L56.5833 42.18L36.4972 63.5372ZM58.7806 39.8572L53.2972 34.0606L56.3889 30.8333L61.9111 36.6711L58.7806 39.8572Z" fill="black"/>
</g>
<defs>
<clipPath id="clip0_38_506">
<rect width="70" height="74" fill="white"/>
</clipPath>
</defs>
</svg>
